#tb 0: 1001/30000
0,          0,          0,        1,   287232, 0x17288ed1
0,          1,          1,        1,   287232, 0x17288ed1
0,          2,          2,        1,   287232, 0x232dfda4
0,          3,          3,        1,   287232, 0x1e880ed6
0,          4,          4,        1,   287232, 0x60197d73
0,          5,          5,        1,   287232, 0xe27a4c05
0,          6,          6,        1,   287232, 0xa588b659
0,          7,          7,        1,   287232, 0xaa111895
0,          8,          8,        1,   287232, 0x39ad64c0
0,          9,          9,        1,   287232, 0x2a046b62
0,         10,         10,        1,   287232, 0x733dea31
0,         11,         11,        1,   287232, 0x06e38bfc
0,         12,         12,        1,   287232, 0xcc1d2de4
0,         13,         13,        1,   287232, 0x207a0a62
0,         14,         14,        1,   287232, 0x9ee6289f
0,         15,         15,        1,   287232, 0x60dedf92
